<svg id="visual" viewBox="0 0 900 600" width="900" height="600" xmlns="http://www.w3.org/2000/svg" xmlns:xlink="http://www.w3.org/1999/xlink" version="1.1"><rect x="0" y="0" width="900" height="600" fill="#ADD5F7"></rect><path d="M0 267L30 301.8C60 336.7 120 406.3 180 413.7C240 421 300 366 360 329.7C420 293.3 480 275.7 540 295.5C600 315.3 660 372.7 720 398C780 423.3 840 416.7 870 413.3L900 410L900 601L870 601C840 601 780 601 720 601C660 601 600 601 540 601C480 601 420 601 360 601C300 601 240 601 180 601C120 601 60 601 30 601L0 601Z" fill="#4E7AC7" stroke-linecap="round" stroke-linejoin="miter"></path></svg>